<svg width="42" height="42" viewBox="0 0 42 42" fill="none" xmlns="http://www.w3.org/2000/svg">
<circle cx="21" cy="21" r="21" fill="#2C2C2C"/>
<g clip-path="url(#clip0_223_3176)">
<path fill-rule="evenodd" clip-rule="evenodd" d="M15.95 11.3658C16.1842 11.1313 16.5019 10.9995 16.8333 10.9992H29.3333C29.6648 10.9992 29.9828 11.1309 30.2172 11.3653C30.4516 11.5997 30.5833 11.9176 30.5833 12.2492V19.7492C30.5834 19.9134 30.5511 20.076 30.4884 20.2278C30.4256 20.3795 30.3336 20.5174 30.2175 20.6336C30.1014 20.7497 29.9636 20.8419 29.8118 20.9048C29.6601 20.9676 29.4975 21 29.3333 21H16.8333C16.5018 21 16.1838 20.8683 15.9494 20.6339C15.715 20.3995 15.5833 20.0815 15.5833 19.75V12.25C15.5833 11.9192 15.715 11.6 15.95 11.3658ZM14.3333 14.3325V12.25C14.3333 11.8111 14.4488 11.38 14.6683 11H13.5C13.2264 11 12.9555 11.0539 12.7027 11.1586C12.4499 11.2633 12.2203 11.4167 12.0268 11.6102C11.6361 12.0009 11.4166 12.5308 11.4166 13.0833V28.9167C11.4166 29.1902 11.4705 29.4612 11.5752 29.7139C11.6799 29.9667 11.8334 30.1963 12.0268 30.3898C12.2203 30.5833 12.4499 30.7367 12.7027 30.8414C12.9555 30.9461 13.2264 31 13.5 31H21V31.0017C21.02 31.0017 21.0391 31.0017 21.0583 31H21.0658C21.6068 30.9829 22.12 30.7559 22.4966 30.367C22.8731 29.9781 23.0836 29.458 23.0833 28.9167V23.1808C23.0833 22.9598 22.9955 22.7479 22.8392 22.5916C22.6829 22.4353 22.471 22.3475 22.25 22.3475C22.0289 22.3475 21.817 22.4353 21.6607 22.5916C21.5044 22.7479 21.4166 22.9598 21.4166 23.1808V26.625C21.4168 26.6772 21.3974 26.7276 21.3622 26.7662C21.327 26.8048 21.2786 26.8287 21.2266 26.8333H13.2916C13.2364 26.8333 13.1834 26.8114 13.1443 26.7723C13.1052 26.7332 13.0833 26.6802 13.0833 26.625V14.5417C13.0833 14.4864 13.1052 14.4334 13.1443 14.3943C13.1834 14.3553 13.2364 14.3333 13.2916 14.3333L14.3333 14.3325ZM16.5566 28.4533C16.4339 28.6372 16.3892 28.8623 16.4324 29.0792C16.4756 29.296 16.6032 29.4868 16.787 29.6096C16.9709 29.7323 17.196 29.777 17.4129 29.7338C17.6297 29.6906 17.8205 29.563 17.9433 29.3792C18.0041 29.2881 18.0463 29.186 18.0677 29.0786C18.089 28.9712 18.0889 28.8607 18.0676 28.7533C18.0462 28.6459 18.0038 28.5438 17.943 28.4528C17.8821 28.3618 17.8039 28.2837 17.7129 28.2229C17.6218 28.1621 17.5197 28.1199 17.4123 28.0985C17.3049 28.0772 17.1944 28.0773 17.087 28.0987C16.9797 28.12 16.8776 28.1624 16.7866 28.2232C16.6955 28.2841 16.6174 28.3623 16.5566 28.4533ZM23.615 14.3225C23.4493 14.2439 23.2663 14.2086 23.0833 14.22C22.775 14.22 22.515 14.3192 22.345 14.4517C22.1725 14.585 22.1233 14.7208 22.1233 14.81C22.1233 14.8975 22.1691 15.0258 22.3383 15.1533C22.5075 15.2808 22.7683 15.3783 23.0833 15.3783C23.6416 15.3783 24.1725 15.5442 24.5783 15.8467C24.9866 16.15 25.2933 16.6175 25.2933 17.1883C25.2933 17.7583 24.9866 18.2275 24.5808 18.5325C24.3308 18.7208 24.0316 18.8575 23.7083 18.9342V19.1742C23.7083 19.3399 23.6424 19.4989 23.5252 19.6161C23.408 19.7333 23.2491 19.7992 23.0833 19.7992C22.9175 19.7992 22.7586 19.7333 22.6414 19.6161C22.5241 19.4989 22.4583 19.3399 22.4583 19.1742V18.9408C21.9374 18.8127 21.4765 18.509 21.1533 18.0808C21.1038 18.0153 21.0677 17.9407 21.0471 17.8613C21.0265 17.7819 21.0217 17.6991 21.033 17.6178C21.0444 17.5365 21.0716 17.4583 21.1132 17.3875C21.1548 17.3168 21.2099 17.2549 21.2754 17.2054C21.3409 17.1559 21.4155 17.1199 21.4949 17.0992C21.5744 17.0786 21.6571 17.0738 21.7384 17.0851C21.8197 17.0965 21.8979 17.1237 21.9687 17.1653C22.0394 17.2069 22.1013 17.262 22.1508 17.3275C22.2588 17.4705 22.4006 17.5845 22.5635 17.6593C22.7264 17.734 22.9053 17.7672 23.0841 17.7558C23.4008 17.7558 23.6616 17.6592 23.8291 17.5333C23.9958 17.4083 24.0441 17.2808 24.0441 17.1883C24.0441 17.0967 23.9975 16.9717 23.8316 16.8492C23.665 16.7242 23.4025 16.6283 23.0833 16.6283C22.5208 16.6283 21.99 16.4567 21.585 16.1508C21.1808 15.8458 20.8733 15.3775 20.8733 14.8108C20.8733 14.2467 21.1783 13.7742 21.5791 13.4633C21.8291 13.2692 22.13 13.1258 22.4583 13.045V12.825C22.4583 12.6592 22.5241 12.5003 22.6414 12.3831C22.7586 12.2658 22.9175 12.2 23.0833 12.2C23.2491 12.2 23.408 12.2658 23.5252 12.3831C23.6424 12.5003 23.7083 12.6592 23.7083 12.825V13.0358C24.2291 13.1637 24.69 13.4671 25.0133 13.895C25.0628 13.9605 25.0988 14.0351 25.1195 14.1145C25.1401 14.194 25.1449 14.2767 25.1336 14.358C25.1222 14.4393 25.095 14.5175 25.0534 14.5883C25.0118 14.6591 24.9567 14.7209 24.8912 14.7704C24.8257 14.8199 24.7511 14.856 24.6717 14.8766C24.5922 14.8972 24.5095 14.902 24.4282 14.8907C24.3469 14.8793 24.2687 14.8521 24.1979 14.8105C24.1271 14.7689 24.0653 14.7138 24.0158 14.6483C23.9106 14.5091 23.7734 14.3973 23.6158 14.3225H23.615Z" fill="white"/>
</g>
<defs>
<clipPath id="clip0_223_3176">
<rect width="20" height="20" fill="white" transform="translate(11 11)"/>
</clipPath>
</defs>
</svg>
