<svg width="40" height="40" viewBox="0 0 40 40" fill="none" xmlns="http://www.w3.org/2000/svg">
<rect width="40" height="40" rx="20" fill="#272729"/>
<path fill-rule="evenodd" clip-rule="evenodd" d="M27.2651 8.11848C24.5879 8.7954 23.0101 11.2961 23.577 13.9639C23.9041 15.5027 24.7381 17.1243 26.2067 19.0765C28.0228 21.4912 28.3048 21.5613 29.653 19.934C32.6537 16.3117 33.695 12.9865 32.5401 10.7136C31.5411 8.74696 29.2454 7.61757 27.2651 8.11848ZM29.7194 11.3789C30.1083 11.7712 30.2649 12.1751 30.2649 12.7863C30.2649 13.8764 29.8049 14.5365 28.8163 14.8657C28.1506 15.0874 27.9299 15.0635 27.3171 14.7034C25.9413 13.895 25.7287 12.4704 26.8195 11.3697C27.5684 10.614 28.9659 10.6185 29.7194 11.3789ZM16.0936 11.4246C15.0127 11.9623 13.589 13.9693 13.0571 15.7052L12.9024 16.2097H17.3617C20.3443 16.2097 21.8209 16.1312 21.8209 15.9729C21.8209 15.5101 20.4492 12.9482 19.8621 12.3143C18.739 11.1015 17.3855 10.7822 16.0936 11.4246ZM12.8866 12.1591C11.2565 12.989 10.0425 13.9868 9.16701 15.2173L8.4606 16.2097H10.1999H11.9393L12.3273 15.1072C12.5406 14.5009 13.0668 13.4778 13.4964 12.8336C13.9259 12.1894 14.2461 11.6309 14.2079 11.5923C14.1697 11.5537 13.575 11.8089 12.8866 12.1591ZM21.1598 12.5181C21.5395 13.0753 22.0546 14.0581 22.304 14.7022C22.5533 15.3464 22.8393 16.0751 22.939 16.3218C23.039 16.5684 23.1806 17.3252 23.2535 18.0034C23.3264 18.6817 23.4446 19.6609 23.5161 20.1795L23.6461 21.1223L25.0112 21.1885C26.0473 21.2387 26.3762 21.3356 26.3762 21.5909C26.3762 21.8463 26.0473 21.9432 25.0112 21.9934L23.6461 22.0596L23.5195 23.0024C23.4499 23.521 23.3279 24.4246 23.2484 25.0103L23.1037 26.0753H24.9841H26.8642L27.2313 24.9285C27.4333 24.2977 27.5984 23.6139 27.5984 23.4089C27.5984 23.2038 27.7461 22.823 27.9268 22.5629C28.2321 22.123 28.2126 22.0708 27.649 21.8217C26.6966 21.4008 24.8034 18.9806 23.6857 16.755C22.8273 15.0464 22.6593 14.5011 22.6315 13.3376C22.6015 12.0744 22.5562 11.9529 22.1131 11.9513C21.846 11.9504 21.3669 11.8495 21.0482 11.7273L20.4689 11.5051L21.1598 12.5181ZM7.71908 17.8355C7.35709 18.7102 6.948 20.8591 7.11222 21.0246C7.17644 21.0896 8.11528 21.1425 9.19879 21.1425C10.5805 21.1425 11.1945 21.0589 11.2549 20.8622C11.3025 20.7082 11.4034 19.8001 11.4793 18.8443L11.6176 17.1065H9.81942H8.02106L7.71908 17.8355ZM12.6062 17.3193C12.5344 17.4364 12.4137 18.3445 12.3378 19.3373L12.2 21.1425H17.48H22.7602L22.6239 20.1335C22.5488 19.5786 22.4262 18.6705 22.3511 18.1155L22.2149 17.1065H17.4755C14.7265 17.1065 12.6817 17.1958 12.6062 17.3193ZM7.19532 23.2961C7.30265 23.9872 7.53242 24.8953 7.70574 25.3141L8.02106 26.0753H9.84098H11.6611L11.5209 24.8982C11.4438 24.2506 11.3798 23.3428 11.3789 22.8802L11.3769 22.0394H9.18834H7L7.19532 23.2961ZM12.3266 23.665C12.5304 26.3105 12.0582 26.0933 17.4486 26.0238L22.1362 25.9632L22.2902 25.2033C22.3748 24.7854 22.5111 23.9024 22.5928 23.2414L22.7417 22.0394H17.4717H12.2015L12.3266 23.665ZM8.89791 27.5958C9.99342 29.148 12.1998 30.8425 13.7595 31.3288C14.213 31.4703 14.1921 31.3916 13.5021 30.357C13.0893 29.7377 12.5842 28.7229 12.3795 28.1016L12.0078 26.9722H10.233H8.45793L8.89791 27.5958ZM13.2617 27.8579C13.7172 29.1602 13.9963 29.6214 14.9845 30.703C17.0362 32.949 19.4152 32.2385 21.0936 28.8781C21.34 28.3848 21.6111 27.7541 21.6962 27.4767L21.8509 26.9722H17.4015H12.9522L13.2617 27.8579ZM22.7095 27.2525C22.7093 27.7218 21.376 30.4147 20.8778 30.9521C20.2132 31.6692 20.7318 31.5907 22.3273 30.7326C23.6974 29.9956 25.5434 28.3626 26.0182 27.4671C26.2789 26.9758 26.2678 26.9722 24.4952 26.9722C23.215 26.9722 22.7097 27.0516 22.7095 27.2525Z" fill="#0065FF"/>
</svg>
