<svg width="42" height="42" viewBox="0 0 42 42" fill="none" xmlns="http://www.w3.org/2000/svg">
<circle cx="21" cy="21" r="21" fill="#2C2C2C"/>
<path fill-rule="evenodd" clip-rule="evenodd" d="M11.4129 11.4214C11.5445 11.288 11.7013 11.1821 11.8742 11.1097C12.0471 11.0374 12.2326 11.0001 12.42 11H29.3571C29.5444 10.9998 29.7298 11.0367 29.9028 11.1085C30.0757 11.1803 30.2327 11.2857 30.3647 11.4185C30.4967 11.5513 30.6011 11.7089 30.6719 11.8823C30.7427 12.0557 30.7785 12.2413 30.7771 12.4286V16.7143C30.7778 17.0916 30.6288 17.4538 30.3629 17.7214C30.2314 17.8547 30.0748 17.9605 29.9022 18.0329C29.7296 18.1052 29.5443 18.1426 29.3571 18.1429H28.0314V15.8814C28.0314 15.0289 27.6928 14.2114 27.09 13.6086C26.4872 13.0058 25.6696 12.6671 24.8171 12.6671H16.96C16.1075 12.6671 15.29 13.0058 14.6872 13.6086C14.0844 14.2114 13.7457 15.0289 13.7457 15.8814V18.1429H12.42C12.2326 18.1428 12.0471 18.1055 11.8742 18.0331C11.7013 17.9608 11.5445 17.8548 11.4129 17.7214C11.1481 17.4531 10.9998 17.0912 11 16.7143V12.4286C10.9997 12.0513 11.1472 11.6893 11.4129 11.4214Z" fill="white"/>
<path fill-rule="evenodd" clip-rule="evenodd" d="M15.5314 15.8814C15.5314 15.5025 15.6819 15.1392 15.9498 14.8713C16.2177 14.6034 16.5811 14.4529 16.9599 14.4529H24.8171C25.196 14.4529 25.5593 14.6034 25.8272 14.8713C26.0951 15.1392 26.2457 15.5025 26.2457 15.8814V29.2743C26.2457 29.6532 26.0951 30.0165 25.8272 30.2844C25.5593 30.5523 25.196 30.7029 24.8171 30.7029H16.9599C16.5811 30.7029 16.2177 30.5523 15.9498 30.2844C15.6819 30.0165 15.5314 29.6532 15.5314 29.2743V15.8814ZM19.8171 17.7857C19.8171 17.5016 19.93 17.229 20.1309 17.0281C20.3318 16.8272 20.6044 16.7143 20.8885 16.7143C21.1727 16.7143 21.4452 16.8272 21.6461 17.0281C21.8471 17.229 21.9599 17.5016 21.9599 17.7857C21.9599 18.0699 21.8471 18.3424 21.6461 18.5433C21.4452 18.7443 21.1727 18.8571 20.8885 18.8571C20.6044 18.8571 20.3318 18.7443 20.1309 18.5433C19.93 18.3424 19.8171 18.0699 19.8171 17.7857ZM18.3885 22.5771C18.3885 21.9141 18.6519 21.2782 19.1207 20.8094C19.5896 20.3405 20.2255 20.0771 20.8885 20.0771C21.5516 20.0771 22.1874 20.3405 22.6563 20.8094C23.1251 21.2782 23.3885 21.9141 23.3885 22.5771C23.3885 23.2402 23.1251 23.8761 22.6563 24.3449C22.1874 24.8138 21.5516 25.0771 20.8885 25.0771C20.2255 25.0771 19.5896 24.8138 19.1207 24.3449C18.6519 23.8761 18.3885 23.2402 18.3885 22.5771ZM20.8885 26.3786C20.7478 26.3786 20.6085 26.4063 20.4785 26.4601C20.3485 26.514 20.2304 26.5929 20.1309 26.6924C20.0314 26.7919 19.9525 26.91 19.8986 27.04C19.8448 27.17 19.8171 27.3093 19.8171 27.45C19.8171 27.5907 19.8448 27.73 19.8986 27.86C19.9525 27.99 20.0314 28.1081 20.1309 28.2076C20.2304 28.3071 20.3485 28.386 20.4785 28.4399C20.6085 28.4937 20.7478 28.5214 20.8885 28.5214C21.1727 28.5214 21.4452 28.4085 21.6461 28.2076C21.8471 28.0067 21.9599 27.7342 21.9599 27.45C21.9599 27.1658 21.8471 26.8933 21.6461 26.6924C21.4452 26.4915 21.1727 26.3786 20.8885 26.3786Z" fill="white"/>
</svg>
