<svg width="42" height="42" viewBox="0 0 42 42" fill="none" xmlns="http://www.w3.org/2000/svg">
<circle cx="21" cy="21" r="21" fill="#2C2C2C"/>
<path fill-rule="evenodd" clip-rule="evenodd" d="M24.769 16.392C24.769 17.3608 24.3841 18.29 23.6991 18.9751C23.014 19.6601 22.0848 20.045 21.116 20.045C20.1472 20.045 19.218 19.6601 18.5329 18.9751C17.8479 18.29 17.463 17.3608 17.463 16.392C17.463 14.11 21.116 10 21.116 10C21.116 10 24.769 14.11 24.769 16.392ZM29.906 18.81C30.416 18.363 31.123 18.205 31.881 18.445L32.231 18.555L32.225 26.337L27.571 31.221H22.149V27.573C22.139 26.763 22.472 25.949 23.049 25.347L23.055 25.34L24.145 24.24C24.5814 23.7997 25.1659 23.5373 25.7849 23.5036C26.404 23.47 27.0134 23.6676 27.495 24.058L27.643 24.179V24.184L25.739 26.089L26.799 27.149L28.924 25.026L29.144 24.806V20.624C29.144 19.912 29.409 19.245 29.906 18.81ZM10.35 18.444C11.108 18.204 11.814 18.362 12.324 18.809C12.821 19.244 13.087 19.911 13.087 20.623V24.804L13.307 25.024L15.431 27.148L16.491 26.088L14.587 24.183V24.178L14.737 24.058C15.2183 23.668 15.8273 23.4706 16.4458 23.504C17.0644 23.5375 17.6485 23.7994 18.085 24.239L19.176 25.339L19.182 25.346C19.758 25.948 20.092 26.763 20.082 27.572V31.22H14.66L10.005 26.336L10 18.555L10.35 18.445V18.444Z" fill="white"/>
</svg>
