<svg width="40" height="40" viewBox="0 0 40 40" fill="none" xmlns="http://www.w3.org/2000/svg">
<rect width="40" height="40" rx="20" fill="#272729"/>
<path d="M11 9.5H17.6396L18.5254 12.1582L18.6396 12.5H29C29.8239 12.5 30.5 13.1761 30.5 14V29C30.5 29.8239 29.8239 30.5 29 30.5H20.3604L19.4746 27.8418L19.3604 27.5H11C10.1761 27.5 9.5 26.8239 9.5 26V11C9.5 10.1761 10.1761 9.5 11 9.5ZM18.9863 13.6602L20.2666 17.4502L20.3809 17.79H22.6797V16.5H22.9697V17.79H27.5V18.0898H25.7305L25.6221 18.4434C25.1742 19.9013 24.412 21.273 23.3359 22.4658L23.3262 22.4766L22.9697 22.833L23.3291 23.1865L26.2695 26.082L26.0596 26.293L23.3135 23.5469L22.4863 24.0586L23.4385 26.8994L21.6094 29.1875L20.96 30H28.5C29.3261 30 30 29.3261 30 28.5V14.5C30 13.6739 29.3261 13 28.5 13H18.7637L18.9863 13.6602ZM15 13.5C11.9639 13.5 9.5 15.9639 9.5 19C9.5 22.0361 11.9639 24.5 15 24.5C16.5664 24.5 17.9006 23.9472 18.8428 22.9756C19.7832 22.0057 20.2997 20.653 20.2998 19.1104C20.2998 18.6527 20.2434 18.3136 20.168 17.9795L20.0801 17.5898H14.5V20.2998H17.2891C17.0207 20.9812 16.3312 21.71 15 21.71C13.5453 21.71 12.3496 20.5031 12.3496 19C12.3496 17.4969 13.5453 16.29 15 16.29C15.8345 16.29 16.3773 16.6396 16.6865 16.9326L17.0322 17.2617L17.377 16.9307L18.6963 15.6602L19.0801 15.292L18.6885 14.9316C17.7317 14.0519 16.4826 13.5 15 13.5ZM20.6953 18.7383L21.4854 21.1084L21.5078 21.1748L21.5469 21.2324C21.8191 21.6304 22.1221 22.017 22.4453 22.3818L22.8164 22.7998L23.1914 22.3857C24.1777 21.2945 24.8913 20.0546 25.3428 18.7422L25.5703 18.0801H20.4766L20.6953 18.7383Z" fill="#0047B3" stroke="#0065FF"/>
</svg>
