<svg width="29" height="22" viewBox="0 0 29 22" fill="none" xmlns="http://www.w3.org/2000/svg">
<path d="M10.3784 1.79421H18.0705V14.983H10.3784V1.79421Z" fill="#FF5F00"/>
<path d="M5.17723 21.6213V20.2233C5.17723 19.6873 4.83528 19.3378 4.24917 19.3378C3.95617 19.3378 3.63869 19.431 3.41889 19.734C3.24802 19.4776 3.00386 19.3378 2.63755 19.3378C2.39327 19.3378 2.14922 19.4077 1.95377 19.664V19.3844H1.44096V21.6213H1.95377V20.3863C1.95377 19.9903 2.17358 19.8038 2.51552 19.8038C2.85725 19.8038 3.02833 20.0135 3.02833 20.3863V21.6213H3.54114V20.3863C3.54114 19.9903 3.78519 19.8038 4.10267 19.8038C4.44461 19.8038 4.61547 20.0135 4.61547 20.3863V21.6213H5.17723ZM12.7716 19.3844H11.9414V18.7087H11.4286V19.3844H10.9646V19.827H11.4285V20.8524C11.4285 21.3651 11.6483 21.6679 12.2344 21.6679C12.4542 21.6679 12.6983 21.5981 12.8693 21.5049L12.7227 21.0854C12.5762 21.1786 12.4054 21.202 12.2832 21.202C12.0391 21.202 11.9414 21.0622 11.9414 20.8291V19.827H12.7716V19.3844ZM17.1183 19.3377C16.8253 19.3377 16.63 19.4776 16.5078 19.664V19.3844H15.995V21.6213H16.5078V20.3631C16.5078 19.9903 16.6787 19.7806 16.9962 19.7806C17.0938 19.7806 17.216 19.8039 17.3136 19.8272L17.4601 19.3612C17.3625 19.3378 17.216 19.3377 17.1183 19.3377ZM10.5495 19.5708C10.3052 19.4077 9.96335 19.3378 9.59705 19.3378C9.01104 19.3378 8.62038 19.6174 8.62038 20.0601C8.62038 20.433 8.91338 20.6427 9.42619 20.7126L9.67035 20.736C9.93899 20.7825 10.0855 20.8524 10.0855 20.969C10.0855 21.132 9.89016 21.2486 9.54821 21.2486C9.20638 21.2486 8.93774 21.132 8.76677 21.0156L8.5226 21.3883C8.79124 21.5747 9.15755 21.6679 9.52374 21.6679C10.2075 21.6679 10.5983 21.3651 10.5983 20.9456C10.5983 20.5495 10.2808 20.3397 9.79238 20.2699L9.54821 20.2465C9.32841 20.2232 9.15755 20.1767 9.15755 20.0369C9.15755 19.8737 9.32841 19.7806 9.59705 19.7806C9.89016 19.7806 10.1832 19.897 10.3297 19.9669L10.5495 19.5708ZM24.1756 19.3378C23.8825 19.3378 23.6871 19.4776 23.565 19.664V19.3844H23.0522V21.6213H23.565V20.3631C23.565 19.9903 23.736 19.7806 24.0533 19.7806C24.1511 19.7806 24.2732 19.8039 24.3709 19.8272L24.5174 19.3612C24.4197 19.3378 24.2732 19.3378 24.1756 19.3378ZM17.6311 20.5029C17.6311 21.1786 18.1194 21.6679 18.8765 21.6679C19.2184 21.6679 19.4625 21.5981 19.7067 21.4117L19.4625 21.0156C19.2672 21.1554 19.0719 21.2252 18.8521 21.2252C18.4369 21.2252 18.1439 20.9456 18.1439 20.5029C18.1439 20.0835 18.4369 19.8038 18.8521 19.7806C19.0719 19.7806 19.2672 19.8504 19.4625 19.9903L19.7067 19.5942C19.4625 19.4077 19.2184 19.3378 18.8765 19.3378C18.1194 19.3378 17.6311 19.8272 17.6311 20.5029ZM22.3685 19.3844H21.8557V19.664C21.6847 19.4544 21.4406 19.3378 21.1231 19.3378C20.4638 19.3378 19.951 19.8272 19.951 20.5029C19.951 21.1786 20.4638 21.6679 21.1231 21.6679C21.4649 21.6679 21.7092 21.5515 21.8557 21.3417V21.6213H22.3685V19.3844ZM20.4881 20.5029C20.4881 20.1067 20.7568 19.7806 21.1963 19.7806C21.6114 19.7806 21.9045 20.0835 21.9045 20.5029C21.9045 20.899 21.6114 21.2252 21.1963 21.2252C20.7568 21.2018 20.4881 20.899 20.4881 20.5029ZM14.3589 19.3378C13.6751 19.3378 13.1867 19.8038 13.1867 20.5029C13.1867 21.202 13.675 21.6679 14.3833 21.6679C14.7251 21.6679 15.0671 21.5747 15.3357 21.3651L15.0914 21.0156C14.8961 21.1554 14.6519 21.2486 14.4078 21.2486C14.0903 21.2486 13.7728 21.1088 13.6995 20.7125H15.4334V20.5262C15.4578 19.8038 15.0183 19.3378 14.3589 19.3378ZM14.3589 19.7572C14.6763 19.7572 14.8962 19.9437 14.9449 20.2932H13.724C13.7728 19.9903 13.9926 19.7572 14.3589 19.7572ZM27.0814 18.4989H26.5686V19.664C26.3977 19.4544 26.1535 19.3378 25.836 19.3378C25.1767 19.3378 24.6639 19.8272 24.6639 20.5029C24.6639 21.1786 25.1767 21.6679 25.836 21.6679C26.178 21.6679 26.4221 21.5515 26.5686 21.3417V21.6213H27.0814V18.4989ZM25.2012 20.5029C25.2012 20.1067 25.4697 19.7806 25.9093 19.7806C26.3245 19.7806 26.6175 20.0835 26.6175 20.5029C26.6175 20.899 26.3245 21.2252 25.9093 21.2252C25.4697 21.2018 25.2012 20.899 25.2012 20.5029ZM8.05863 19.3844H7.54582V19.664C7.37484 19.4544 7.13068 19.3378 6.8132 19.3378C6.1539 19.3378 5.64109 19.8272 5.64109 20.5029C5.64109 21.1786 6.1539 21.6679 6.8132 21.6679C7.15515 21.6679 7.39932 21.5515 7.54582 21.3417V21.6213H8.05863V19.3844ZM6.1539 20.5029C6.1539 20.1067 6.42254 19.7806 6.86204 19.7806C7.27718 19.7806 7.57029 20.0835 7.57029 20.5029C7.57029 20.899 7.27718 21.2252 6.86204 21.2252C6.42254 21.2018 6.1539 20.899 6.1539 20.5029Z" fill="white"/>
<path d="M10.8667 8.38861C10.8667 5.70896 12.1853 3.33214 14.2121 1.79419C12.7226 0.675726 10.8424 0 8.79114 0C3.93149 0 0 3.75152 0 8.38861C0 13.0256 3.93149 16.7772 8.79103 16.7772C10.8423 16.7772 12.7225 16.1015 14.2121 14.9829C12.1853 13.4683 10.8667 11.0683 10.8667 8.38861Z" fill="#EB001B"/>
<path d="M28.4486 8.38861C28.4486 13.0256 24.5171 16.7772 19.6575 16.7772C17.6063 16.7772 15.7261 16.1015 14.2365 14.9829C16.2877 13.4451 17.582 11.0683 17.582 8.38861C17.582 5.70896 16.2632 3.33214 14.2365 1.79419C15.726 0.675726 17.6063 3.88683e-07 19.6575 3.88683e-07C24.5171 3.88683e-07 28.4486 3.77487 28.4486 8.38861Z" fill="#F79E1B"/>
</svg>
