<svg width="42" height="42" viewBox="0 0 42 42" fill="none" xmlns="http://www.w3.org/2000/svg">
<circle cx="21" cy="21" r="21" fill="#2C2C2C"/>
<path d="M14 20H18C19.1 20 20 19.1 20 18V14C20 12.9 19.1 12 18 12H14C12.9 12 12 12.9 12 14V18C12 19.1 12.9 20 14 20Z" fill="white"/>
<path d="M14 30H18C19.1 30 20 29.1 20 28V24C20 22.9 19.1 22 18 22H14C12.9 22 12 22.9 12 24V28C12 29.1 12.9 30 14 30Z" fill="white"/>
<path d="M22 14V18C22 19.1 22.9 20 24 20H28C29.1 20 30 19.1 30 18V14C30 12.9 29.1 12 28 12H24C22.9 12 22 12.9 22 14Z" fill="white"/>
<path d="M24 30H28C29.1 30 30 29.1 30 28V24C30 22.9 29.1 22 28 22H24C22.9 22 22 22.9 22 24V28C22 29.1 22.9 30 24 30Z" fill="white"/>
</svg>
